<svg xmlns="http://www.w3.org/2000/svg" width="283.464" height="283.464" viewBox="0 0 283.464 283.464"><path d="M139.659 124.151c-1.423-1.938-2.884-5.11-5.539-5.968v-2.329c.189-.596.725-1.101 1.168-1.438a23.77 23.77 0 0 0 3.177-.678 2.827 2.827 0 0 0 1.513-1.103l15.781-19.036a3.151 3.151 0 0 0 .573-1.809V69.758a.995.995 0 0 0-.995-.996h-44.564a1 1 0 0 0-1.001.996l-.113 22.78a2.8 2.8 0 0 0 .617 1.773l14.936 18.612a3.05 3.05 0 0 0 1.627 1.056c1.374.351 2.741.552 4.101.63.391.334.794.777.941 1.283v2.287c-2.662.852-4.125 4.032-5.549 5.973-13.566 3.04-23.709 15.147-23.709 29.631 0 16.775 13.599 30.373 30.373 30.373 16.775 0 30.373-13.598 30.373-30.373-.001-14.485-10.143-26.593-23.71-29.632zm-7.78-4.904v1.75a1.12 1.12 0 1 0 2.24 0v-1.742a1.997 1.997 0 1 1-2.24-.008zm-59.443-18.708l6.351 14h11.691l7.361-14z"/><path d="M99.594 135.615l10.896-21.539-10.368-12.566-14.408 27.401a20.064 20.064 0 0 1 13.88 6.704zm-16.856-6.649l-12.454-27.455L59.5 113.964l10.048 21.671a20.052 20.052 0 0 1 13.19-6.669zm85.698-28.427l6.351 14h11.691l7.361-14zm27.158 35.076l10.896-21.539-10.368-12.566-14.408 27.401a20.064 20.064 0 0 1 13.88 6.704zm-16.856-6.649l-12.454-27.455-10.784 12.453 10.048 21.671a20.052 20.052 0 0 1 13.19-6.669zm-79.959 9.487c-3.231-4.342-8.385-7.172-14.2-7.172-9.765 0-17.71 7.946-17.71 17.713 0 9.763 7.945 17.705 17.71 17.705 4.312 0 8.266-1.552 11.34-4.122a30.36 30.36 0 0 1-1.298-8.794 30.209 30.209 0 0 1 4.158-15.33zm81.8-7.172c-5.538 0-10.486 2.559-13.736 6.553a30.207 30.207 0 0 1 4.524 15.949 30.34 30.34 0 0 1-1.459 9.309c2.972 2.253 6.662 3.608 10.67 3.608 9.766 0 17.71-7.942 17.71-17.705.002-9.768-7.943-17.714-17.709-17.714z"/></svg>